<svg width="100%" height="100%" id="Layer_1" data-name="Layer 1" xmlns="http://www.w3.org/2000/svg" viewBox="0 0 557.01 126.36"><defs><style>.cls-1{fill:#fff}</style></defs><polygon class="cls-1" points="513.04 23.84 513.04 73.91 471.57 23.84 449.21 23.84 449.21 102.52 471.42 102.52 471.42 51.14 513.04 102.52 535.35 102.52 535.35 23.84 513.04 23.84"/><polygon class="cls-1" points="71.16 57.22 43.9 23.84 21.66 23.84 60.38 72.45 60.38 102.51 81.98 102.51 81.98 72.39 120.66 23.84 98.42 23.84 71.16 57.22"/><polygon class="cls-1" points="344.38 102.51 421.23 102.51 421.23 85.14 366.69 85.14 366.69 69.7 418.45 69.7 418.45 56.67 366.69 56.67 366.69 41.21 421.23 41.21 421.23 23.84 344.38 23.84 344.38 102.51"/><path class="cls-1" d="M191.83,67.72c0,4.23-5.81,17.42-19.74,17.42-14.71,0-19.73-12.62-19.73-18.51V23.84h-20.5V63.18a38.33,38.33,0,0,0,5.49,20.13c.5.82,1,1.62,1.57,2.39a37.72,37.72,0,0,0,16.75,13.66,47.38,47.38,0,0,0,16.42,3.15,45.81,45.81,0,0,0,16.43-3.15A37.72,37.72,0,0,0,205.27,85.7c.55-.77,1.07-1.57,1.57-2.39a38.85,38.85,0,0,0,5.49-20.13V23.84h-20.5Z"/><path class="cls-1" d="M323.38,57.34H280.81V69.7h22.62c-3.07,8.25-11.37,15.41-25.07,15.41-14.5,0-26.25-9.82-26.25-21.93s11.75-21.92,26.25-21.92c.93,0,1.8,0,2.65.05v.06a27.48,27.48,0,0,1,19,9.45c6.39-2.2,12.48-4.35,18.7-6.53a44.54,44.54,0,0,0-25.2-19.71l-.06,0c-.75-.24-1.51-.46-2.28-.67l-.34-.08c-.6-.15-1.21-.3-1.82-.43l-.65-.14c-.68-.14-1.38-.27-2.08-.38l-.72-.1-1.46-.19-1-.1c-.48,0-1-.08-1.45-.11-1.09-.07-2.2-.12-3.32-.12-25.12,0-45.49,18.33-45.49,40.94s20.37,40.95,45.49,40.95,45-18.6,45.5-40.95c0-.56,0-1.13-.05-1.68A26.24,26.24,0,0,0,323.38,57.34Z"/></svg>