<svg id="Layer_1" data-name="Layer 1" xmlns="http://www.w3.org/2000/svg" viewBox="0 0 557.01 164.61"><defs><style>.cls-1{fill:#fff;}</style></defs><polygon class="cls-1" points="513.04 23.96 513.04 74.03 471.57 23.96 449.21 23.96 449.21 102.64 471.42 102.64 471.42 51.26 513.04 102.64 535.35 102.64 535.35 23.96 513.04 23.96"/><polygon class="cls-1" points="71.16 57.34 43.9 23.96 21.66 23.96 60.38 72.57 60.38 102.63 81.98 102.63 81.98 72.51 120.66 23.96 98.42 23.96 71.16 57.34"/><polygon class="cls-1" points="344.38 102.63 421.23 102.63 421.23 85.26 366.69 85.26 366.69 69.82 418.45 69.82 418.45 56.79 366.69 56.79 366.69 41.34 421.23 41.34 421.23 23.96 344.38 23.96 344.38 102.63"/><path class="cls-1" d="M191.83,67.84c0,4.23-5.81,17.42-19.74,17.42-14.71,0-19.73-12.62-19.73-18.51V24h-20.5V63.3a38.33,38.33,0,0,0,5.49,20.13c.5.82,1,1.62,1.57,2.39a37.72,37.72,0,0,0,16.75,13.66,47.38,47.38,0,0,0,16.42,3.15,45.81,45.81,0,0,0,16.43-3.15,37.72,37.72,0,0,0,16.75-13.66c.55-.77,1.07-1.57,1.57-2.39a38.85,38.85,0,0,0,5.49-20.13V24h-20.5Z"/><path class="cls-1" d="M323.38,57.46H280.81V69.82h22.62c-3.07,8.25-11.37,15.41-25.07,15.41-14.5,0-26.25-9.82-26.25-21.93s11.75-21.92,26.25-21.92c.93,0,1.8,0,2.65,0v.06a27.48,27.48,0,0,1,19,9.45c6.39-2.2,12.48-4.35,18.7-6.53a44.54,44.54,0,0,0-25.2-19.71l-.06,0q-1.12-.36-2.28-.66l-.34-.09c-.6-.15-1.21-.3-1.82-.43l-.65-.14c-.68-.14-1.38-.26-2.08-.38l-.72-.1-1.46-.19-1-.1-1.45-.11c-1.09-.07-2.2-.12-3.32-.12-25.12,0-45.49,18.33-45.49,40.94s20.37,41,45.49,41,45-18.6,45.5-40.95c0-.56,0-1.12-.05-1.68A26.36,26.36,0,0,0,323.38,57.46Z"/><path class="cls-1" d="M112.18,137.58v4.48h-2.1v-12H112l1.71,0q4.35,0,4.35,3.7a3.48,3.48,0,0,1-2.31,3.42l3.74,4.89H117l-3.3-4.48Zm1.44-5.56h-1.44v3.56h1.37a2.57,2.57,0,0,0,1.65-.5,1.61,1.61,0,0,0,.64-1.35Q115.84,132,113.62,132Z"/><path class="cls-1" d="M131.86,142.06h-7.1v-12h6.93v2h-4.83v3h4.31v2h-4.31v3.09h5Z"/><path class="cls-1" d="M140.41,132.05h-3.88v-2h9.87v2h-3.88v10h-2.11Z"/><path class="cls-1" d="M153.76,137.58v4.48h-2.11v-12h1.94l1.71,0c2.9,0,4.34,1.23,4.34,3.7a3.45,3.45,0,0,1-2.31,3.42l3.75,4.89h-2.55l-3.3-4.48ZM155.2,132h-1.44v3.56h1.37a2.57,2.57,0,0,0,1.65-.5,1.61,1.61,0,0,0,.64-1.35Q157.42,132,155.2,132Z"/><path class="cls-1" d="M173.44,142.06h-7.11v-12h6.93v2h-4.82v3h4.31v2h-4.31v3.09h5Z"/><path class="cls-1" d="M180.18,142.06h-2.12l5.06-12H185l5.06,12h-2.24L186.54,139h-5.11Zm5.56-5L184,132.77,182.23,137Z"/><path class="cls-1" d="M196.59,132.05H192.7v-2h9.88v2h-3.89v10h-2.1Z"/><path class="cls-1" d="M223.19,139.32l.81,1.58a4.09,4.09,0,0,1-1.62,1,6.55,6.55,0,0,1-2.22.38,5.84,5.84,0,0,1-6.17-6.18,6.3,6.3,0,0,1,1.62-4.43,5.85,5.85,0,0,1,4.5-1.74,5.26,5.26,0,0,1,3.65,1.21l-.94,1.56a4.77,4.77,0,0,0-2.71-.81,3.72,3.72,0,0,0-2.8,1.15,4.25,4.25,0,0,0-1.1,3.06,4.14,4.14,0,0,0,1.15,3.05,4.05,4.05,0,0,0,3,1.16A4.57,4.57,0,0,0,223.19,139.32Z"/><path class="cls-1" d="M230,142.06h-2.13l5.07-12h1.85l5.06,12H237.6L236.35,139h-5.11Zm5.56-5-1.75-4.26L232,137Z"/><path class="cls-1" d="M247.17,137.58v4.48h-2.11v-12H247l1.72,0q4.33,0,4.34,3.7a3.45,3.45,0,0,1-2.31,3.42l3.75,4.89h-2.55l-3.3-4.48ZM248.6,132h-1.43v3.56h1.36a2.59,2.59,0,0,0,1.66-.5,1.63,1.63,0,0,0,.64-1.35C250.83,132.6,250.09,132,248.6,132Z"/><path class="cls-1" d="M261.85,137.73v4.33h-2.11v-12h1.63l1.78,0a6.83,6.83,0,0,1,2.19.32,3.36,3.36,0,0,1,1.45.87,3.69,3.69,0,0,1,.75,1.21,4.24,4.24,0,0,1,.24,1.45,3.66,3.66,0,0,1-1.16,2.75,4.36,4.36,0,0,1-3.22,1.13A15.2,15.2,0,0,1,261.85,137.73Zm1.5-5.71-1.5,0v3.68c.6.06,1.1.09,1.48.09a2.47,2.47,0,0,0,1.62-.5,1.74,1.74,0,0,0,.61-1.44C265.56,132.64,264.82,132,263.35,132Z"/><path class="cls-1" d="M273.12,142.06H271l5.06-12h1.85l5.07,12h-2.24L279.49,139h-5.12Zm5.56-5-1.74-4.26L275.18,137Z"/><path class="cls-1" d="M289.53,132.05h-3.88v-2h9.87v2h-3.88v10h-2.11Z"/><path class="cls-1" d="M310.44,142.06h-2.09V137h-5.47v5.11h-2.11v-12h2.11V135h5.47v-4.9h2.09Z"/><path class="cls-1" d="M319.54,142.06h-2.1v-12h2.1Z"/><path class="cls-1" d="M327.12,142.06H325l5.07-12h1.84l5.07,12h-2.24L333.49,139h-5.12Zm5.56-5-1.74-4.26L329.18,137Z"/><path class="cls-1" d="M352.43,130.08v12h-1.68l-6.59-8.3v8.3h-2v-12h1.67l6.59,8.34v-8.34Z"/><path class="cls-1" d="M368.32,137.58v4.48h-2.1v-12h1.93l1.71,0q4.35,0,4.35,3.7a3.5,3.5,0,0,1-.7,2.25,3.58,3.58,0,0,1-1.61,1.17l3.75,4.89H373.1l-3.3-4.48Zm1.44-5.56h-1.44v3.56h1.37a2.54,2.54,0,0,0,1.65-.5,1.61,1.61,0,0,0,.65-1.35C372,132.6,371.24,132,369.76,132Z"/><path class="cls-1" d="M388,142.06h-7.1v-12h6.93v2H383v3h4.31v2H383v3.09h5Z"/><path class="cls-1" d="M399,138.88a1.39,1.39,0,0,0-.4-1,3,3,0,0,0-1-.68c-.4-.18-.84-.38-1.31-.62a13.29,13.29,0,0,1-1.31-.73,3.07,3.07,0,0,1-1-1.08,3.31,3.31,0,0,1,.6-4,3.93,3.93,0,0,1,2.73-.95,4.35,4.35,0,0,1,3.42,1.28l-1.13,1.57a3,3,0,0,0-2.12-.89,1.92,1.92,0,0,0-1.23.36,1.17,1.17,0,0,0-.45,1,1.32,1.32,0,0,0,.12.57,2,2,0,0,0,.26.44,2.1,2.1,0,0,0,.48.38l.53.3.66.3.65.29a9,9,0,0,1,1.32.72,2.84,2.84,0,0,1,1,1.07,3.27,3.27,0,0,1,.38,1.61,3,3,0,0,1-1.14,2.45,4.36,4.36,0,0,1-2.86.94,6.12,6.12,0,0,1-2.38-.5,3,3,0,0,1-1.54-1.38l1.2-1.44a3.29,3.29,0,0,0,1.24,1,3.52,3.52,0,0,0,1.51.36,2,2,0,0,0,1.27-.37A1.24,1.24,0,0,0,399,138.88Z"/><path class="cls-1" d="M406.16,136.07a6,6,0,0,1,6.22-6.17,6.16,6.16,0,0,1,4.47,1.71,6.44,6.44,0,0,1,0,8.89,6.63,6.63,0,0,1-8.93,0A5.93,5.93,0,0,1,406.16,136.07Zm2.22,0a4.14,4.14,0,0,0,1.15,3,4.08,4.08,0,0,0,5.78,0,4.27,4.27,0,0,0,1.09-3,4.16,4.16,0,0,0-1.16-3,4.07,4.07,0,0,0-5.73,0A4.23,4.23,0,0,0,408.38,136.07Z"/><path class="cls-1" d="M426.59,137.58v4.48h-2.11v-12h1.93l1.72,0q4.33,0,4.34,3.7a3.45,3.45,0,0,1-2.31,3.42l3.75,4.89h-2.55l-3.3-4.48ZM428,132h-1.43v3.56H428a2.59,2.59,0,0,0,1.66-.5,1.63,1.63,0,0,0,.64-1.35C430.25,132.6,429.51,132,428,132Z"/><path class="cls-1" d="M440.94,132.05h-3.88v-2h9.87v2h-3.88v10h-2.11Z"/></svg>